<?xml version="1.0" standalone="no"?>
<!DOCTYPE svg PUBLIC "-//W3C//DTD SVG 20010904//EN"
 "http://www.w3.org/TR/2001/REC-SVG-20010904/DTD/svg10.dtd">
<svg version="1.0" xmlns="http://www.w3.org/2000/svg"
 width="500.000000pt" height="500.000000pt" viewBox="0 0 500.000000 500.000000"
 preserveAspectRatio="xMidYMid meet">

<g transform="translate(0.000000,500.000000) scale(0.100000,-0.100000)"
fill="#000000" stroke="none">
<path d="M2242 2927 c-7 -8 -30 -13 -56 -12 -27 0 -42 -3 -40 -10 6 -14 84
-19 84 -5 0 5 5 9 11 8 6 -2 13 5 14 15 4 20 1 21 -13 4z"/>
<path d="M2694 2916 c-3 -9 -12 -12 -21 -9 -11 4 -14 2 -9 -5 4 -7 28 -12 53
-12 39 0 44 2 33 15 -9 11 -17 12 -33 4 -17 -10 -19 -9 -14 5 4 9 4 16 1 16
-2 0 -7 -6 -10 -14z"/>
<path d="M2110 2916 c0 -2 8 -10 18 -17 15 -13 16 -12 3 4 -13 16 -21 21 -21
13z"/>
<path d="M2768 2913 c7 -3 16 -2 19 1 4 3 -2 6 -13 5 -11 0 -14 -3 -6 -6z"/>
<path d="M3670 2674 l0 -85 -29 20 c-41 29 -117 28 -161 -1 -55 -38 -74 -71
-78 -143 -6 -92 3 -127 46 -176 36 -39 43 -43 98 -47 53 -4 63 -1 91 22 37 31
43 32 43 6 0 -16 7 -20 35 -20 l35 0 0 255 0 255 -40 0 -40 0 0 -86z m-48
-115 c42 -23 62 -127 37 -198 -12 -33 -52 -61 -89 -61 -33 0 -77 50 -85 98
-20 122 51 207 137 161z"/>
<path d="M2401 2732 c-52 -2 -64 -6 -68 -22 -3 -11 -9 -18 -12 -15 -4 2 -8 -2
-8 -9 0 -10 25 -14 104 -15 102 -2 103 -2 99 21 -3 13 -5 28 -5 33 -1 12 -15
12 -110 7z"/>
<path d="M2597 2623 l-28 -4 3 -161 3 -160 33 -29 c26 -24 41 -29 82 -29 41 0
55 5 85 31 l35 31 0 -26 c0 -24 4 -26 40 -26 l40 0 0 185 c0 102 -3 185 -7
186 -5 0 -25 2 -45 3 l-38 2 0 -128 c0 -94 -4 -137 -15 -157 -23 -45 -67 -54
-106 -22 -23 18 -24 27 -29 162 -3 83 -9 143 -15 144 -5 1 -23 0 -38 -2z"/>
<path d="M3003 2623 c-10 -3 -13 -51 -13 -189 l0 -184 40 0 40 0 0 108 c0 59
5 124 10 144 18 64 75 87 121 49 23 -18 24 -26 27 -160 l4 -141 39 0 39 0 0
156 0 156 -34 34 c-29 29 -41 34 -83 34 -48 0 -84 -16 -110 -50 -11 -13 -12
-11 -13 11 0 33 -30 47 -67 32z"/>
<path d="M2265 2571 c-3 -5 -2 -12 3 -15 5 -3 9 1 9 9 0 17 -3 19 -12 6z"/>
<path d="M2385 2529 c-33 -5 -69 -11 -80 -13 -11 -2 -22 -5 -24 -5 -2 -1 2 -8
9 -16 7 -9 18 -14 24 -12 6 2 46 1 89 -2 l77 -7 0 33 c0 37 3 36 -95 22z m-70
-37 c-3 -3 -11 0 -18 7 -9 10 -8 11 6 5 10 -3 15 -9 12 -12z"/>
</g>
</svg>
